<svg width="56" height="56" viewBox="0 0 56 56" fill="none" xmlns="http://www.w3.org/2000/svg">
<path d="M15.26 11.6667C15.4 13.7433 15.75 15.7733 16.31 17.71L13.51 20.51C12.5533 17.71 11.9467 14.7467 11.7367 11.6667H15.26ZM38.2667 39.7133C40.25 40.2733 42.28 40.6233 44.3333 40.7633V44.24C41.2533 44.03 38.29 43.4233 35.4667 42.49L38.2667 39.7133ZM17.5 7H9.33333C8.05 7 7 8.05 7 9.33333C7 31.2433 24.7567 49 46.6667 49C47.95 49 49 47.95 49 46.6667V38.5233C49 37.24 47.95 36.19 46.6667 36.19C43.7733 36.19 40.95 35.7233 38.3367 34.86C38.1033 34.7667 37.8467 34.7433 37.6133 34.7433C37.0067 34.7433 36.4233 34.9767 35.9567 35.42L30.8233 40.5533C24.22 37.17 18.8067 31.78 15.4467 25.1767L20.58 20.0433C21.2333 19.39 21.42 18.48 21.1633 17.6633C20.3 15.05 19.8333 12.25 19.8333 9.33333C19.8333 8.05 18.7833 7 17.5 7Z" fill="#B1B6AF"/>
</svg>
