<svg width="56" height="56" viewBox="0 0 56 56" fill="none" xmlns="http://www.w3.org/2000/svg">
<path d="M30.3335 14V21H37.3335V25.6667H30.3335V32.6667H25.6668V25.6667H18.6668V21H25.6668V14H30.3335ZM42.0002 23.8C42.0002 15.33 35.8168 9.33334 28.0002 9.33334C20.1835 9.33334 14.0002 15.33 14.0002 23.8C14.0002 29.26 18.5502 36.4933 28.0002 45.1267C37.4502 36.4933 42.0002 29.26 42.0002 23.8ZM28.0002 4.66667C37.8002 4.66667 46.6668 12.18 46.6668 23.8C46.6668 31.5467 40.4368 40.7167 28.0002 51.3333C15.5635 40.7167 9.3335 31.5467 9.3335 23.8C9.3335 12.18 18.2002 4.66667 28.0002 4.66667Z" fill="#B1B6AF"/>
</svg>
