<svg width="56" height="56" viewBox="0 0 56 56" fill="none" xmlns="http://www.w3.org/2000/svg">
<path d="M42 18.6667H39.6667V14C39.6667 7.56004 34.44 2.33337 28 2.33337C21.56 2.33337 16.3333 7.56004 16.3333 14V18.6667H14C11.4333 18.6667 9.33333 20.7667 9.33333 23.3334V46.6667C9.33333 49.2334 11.4333 51.3334 14 51.3334H42C44.5667 51.3334 46.6667 49.2334 46.6667 46.6667V23.3334C46.6667 20.7667 44.5667 18.6667 42 18.6667ZM21 14C21 10.1267 24.1267 7.00004 28 7.00004C31.8733 7.00004 35 10.1267 35 14V18.6667H21V14ZM42 46.6667H14V23.3334H42V46.6667ZM28 39.6667C30.5667 39.6667 32.6667 37.5667 32.6667 35C32.6667 32.4334 30.5667 30.3334 28 30.3334C25.4333 30.3334 23.3333 32.4334 23.3333 35C23.3333 37.5667 25.4333 39.6667 28 39.6667Z" fill="#B1B6AF"/>
</svg>
