<svg width="62" height="56" viewBox="0 0 62 56" fill="none" xmlns="http://www.w3.org/2000/svg">
<path d="M31 13.7667C33.9967 13.7667 36.425 15.96 36.425 18.6667C36.425 21.3734 33.9967 23.5667 31 23.5667C28.0033 23.5667 25.575 21.3734 25.575 18.6667C25.575 15.96 28.0033 13.7667 31 13.7667ZM31 34.7667C38.6725 34.7667 46.7583 38.1734 46.7583 39.6667V42.2334H15.2417V39.6667C15.2417 38.1734 23.3275 34.7667 31 34.7667ZM31 9.33337C25.2908 9.33337 20.6667 13.51 20.6667 18.6667C20.6667 23.8234 25.2908 28 31 28C36.7092 28 41.3333 23.8234 41.3333 18.6667C41.3333 13.51 36.7092 9.33337 31 9.33337ZM31 30.3334C24.1025 30.3334 10.3333 33.46 10.3333 39.6667V46.6667H51.6667V39.6667C51.6667 33.46 37.8975 30.3334 31 30.3334Z" fill="#B1B6AF"/>
</svg>
