<svg width="62" height="56" viewBox="0 0 62 56" fill="none" xmlns="http://www.w3.org/2000/svg">
<path d="M31 13.7667C33.9967 13.7667 36.425 15.96 36.425 18.6667C36.425 21.3733 33.9967 23.5667 31 23.5667C28.0034 23.5667 25.575 21.3733 25.575 18.6667C25.575 15.96 28.0034 13.7667 31 13.7667ZM31 34.7667C38.6725 34.7667 46.7584 38.1733 46.7584 39.6667V42.2333H15.2417V39.6667C15.2417 38.1733 23.3275 34.7667 31 34.7667ZM31 9.33334C25.2909 9.33334 20.6667 13.51 20.6667 18.6667C20.6667 23.8233 25.2909 28 31 28C36.7092 28 41.3334 23.8233 41.3334 18.6667C41.3334 13.51 36.7092 9.33334 31 9.33334ZM31 30.3333C24.1025 30.3333 10.3334 33.46 10.3334 39.6667V46.6667H51.6667V39.6667C51.6667 33.46 37.8975 30.3333 31 30.3333Z" fill="#B1B6AF"/>
</svg>
