<svg width="56" height="56" viewBox="0 0 56 56" fill="none" xmlns="http://www.w3.org/2000/svg">
<path d="M28 28C25.4334 28 23.3334 25.9 23.3334 23.3333C23.3334 20.7667 25.4334 18.6667 28 18.6667C30.5667 18.6667 32.6667 20.7667 32.6667 23.3333C32.6667 25.9 30.5667 28 28 28ZM42 23.8C42 15.33 35.8167 9.33333 28 9.33333C20.1834 9.33333 14 15.33 14 23.8C14 29.26 18.55 36.4933 28 45.1267C37.45 36.4933 42 29.26 42 23.8ZM28 4.66666C37.8 4.66666 46.6667 12.18 46.6667 23.8C46.6667 31.5467 40.4367 40.7167 28 51.3333C15.5634 40.7167 9.33337 31.5467 9.33337 23.8C9.33337 12.18 18.2 4.66666 28 4.66666Z" fill="#B1B6AF"/>
</svg>
